<svg width="168" height="40" viewBox="0 0 168 40" fill="none" xmlns="http://www.w3.org/2000/svg">
<path d="M18.3275 12.0065C20.1385 11.9911 21.9055 12.5622 23.3628 13.634L20.6784 16.3097C19.9679 15.887 19.1549 15.6661 18.3275 15.6706C17.7367 15.6602 17.1497 15.7672 16.6008 15.9851C16.0519 16.2031 15.552 16.5278 15.1302 16.9402C14.7107 17.3278 14.3775 17.7988 14.1522 18.3229C13.9269 18.8469 13.8145 19.4122 13.8222 19.9823C13.8082 20.562 13.9175 21.1382 14.1429 21.6728C14.3683 22.2074 14.7048 22.6883 15.1302 23.084C15.5499 23.4944 16.0471 23.8179 16.5929 24.0358C17.1387 24.2537 17.7224 24.3617 18.3104 24.3537C19.0257 24.354 19.7312 24.1876 20.3707 23.8679L23.0978 26.4925C21.6923 27.4473 20.0283 27.9526 18.3275 27.9411C17.2431 27.9644 16.165 27.7731 15.1553 27.3782C14.1457 26.9832 13.2248 26.3926 12.4458 25.6404C11.6612 24.9223 11.0378 24.047 10.6165 23.0719C10.1951 22.0968 9.98529 21.0439 10.0008 19.9823C9.98837 18.9249 10.1997 17.8768 10.621 16.9063C11.0423 15.9358 11.6641 15.0647 12.4458 14.3498C13.2213 13.5899 14.1407 12.9914 15.1504 12.5891C16.1602 12.1868 17.2402 11.9887 18.3275 12.0065Z" fill="#050505"/>
<path d="M36.1945 24.4979L35.7841 24.2508L38.212 21.8137L36.8356 18.5416L32.9801 27.966H28.7484L35.3567 12.0059H38.3146L44.9229 27.9575H40.6485L39.2122 24.4894L36.1945 24.4979Z" fill="#050505"/>
<path d="M49.7355 12.0059H62.6615V16.0279H58.1989V27.9575H54.1638V18.6609V18.5246L57.0192 16.0279H49.7355V12.0059Z" fill="#050505"/>
<path d="M74.8097 24.4979L74.3994 24.2508L76.8444 21.8137L75.4509 18.5416L71.5953 27.966H67.3209L73.9719 12.0059H76.9213L83.5211 27.966H79.2466L77.8104 24.4979H74.8097Z" fill="#050505"/>
<path d="M88.9595 12.0059H93.0544V24.1911H99.7653L100.073 24.6939L96.7988 27.9575H88.9595V12.0059Z" fill="#050505"/>
<path d="M105.681 12.0059H110.366L113.631 16.5562L116.769 12.0059H121.522L115.58 20.527V28.0001H111.426V20.527L105.681 12.0059Z" fill="#050505"/>
<path d="M128.053 22.5294H131.909C131.891 22.7714 131.939 23.0138 132.047 23.2311C132.155 23.4485 132.32 23.6328 132.524 23.765C132.913 24.008 133.366 24.1269 133.824 24.1058C134.263 24.0968 134.691 23.9702 135.063 23.7394C135.223 23.6524 135.35 23.5171 135.427 23.3531C135.504 23.1892 135.526 23.0052 135.491 22.8276C135.45 22.5649 135.317 22.3253 135.115 22.1519C134.912 21.9785 134.655 21.8827 134.388 21.8818C133.773 21.8307 133.097 21.7625 132.362 21.6773C131.689 21.6566 131.029 21.4804 130.436 21.1624C129.842 20.8445 129.331 20.3936 128.942 19.8452C128.369 19.0452 128.034 18.1 127.976 17.1185C127.944 16.4181 128.083 15.7204 128.381 15.0852C128.679 14.45 129.127 13.8963 129.686 13.4714C130.753 12.598 132.07 12.0848 133.448 12.0057C134.85 11.9462 136.233 12.3507 137.38 13.1561C138.024 13.6285 138.551 14.2424 138.918 14.9502C139.286 15.6581 139.485 16.4408 139.5 17.2377H135.508C135.534 17.0402 135.504 16.8394 135.423 16.6575C135.341 16.4755 135.211 16.3195 135.046 16.2067C134.705 15.9621 134.303 15.8148 133.884 15.7806C133.462 15.7426 133.037 15.816 132.653 15.9937C132.48 16.0649 132.331 16.1822 132.221 16.3324C132.111 16.4827 132.044 16.6603 132.029 16.8458C132.114 17.6127 132.507 17.9791 133.208 17.945C134.014 17.9177 134.819 17.9806 135.611 18.1325C136.187 18.2262 136.739 18.4325 137.235 18.7396C137.731 19.0467 138.161 19.4485 138.5 19.9219C139.198 20.8297 139.579 21.9397 139.586 23.0833C139.575 24.2344 139.157 25.3448 138.406 26.2191C137.404 27.289 136.018 27.9201 134.551 27.9744C133.953 28.0229 133.351 27.9856 132.764 27.8637C131.99 27.7076 131.25 27.4193 130.575 27.0115C129.842 26.5908 129.216 26.0077 128.746 25.3073C128.221 24.4797 127.978 23.5055 128.053 22.5294Z" fill="#050505"/>
<path d="M145.074 12.0059H158V16.0279H153.538V27.9575H149.503V18.6609V18.5246L152.315 16.0279H145.074V12.0059Z" fill="#050505"/>
</svg>
